{
	"asset":{
		"generator":"Khronos glTF Blender I/O v4.4.55",
		"version":"2.0"
	},
	"extensionsUsed":[
		"KHR_materials_emissive_strength"
	],
	"scene":0,
	"scenes":[
		{
			"name":"Scene",
			"nodes":[
				3,
				4
			]
		}
	],
	"nodes":[
		{
			"mesh":0,
			"name":"defaultMaterial"
		},
		{
			"children":[
				0
			],
			"name":"g"
		},
		{
			"children":[
				1
			],
			"name":"Collada visual scene group",
			"rotation":[
				0.70710688829422,
				0,
				0,
				0.7071066498756409
			]
		},
		{
			"children":[
				2
			],
			"name":"Sketchfab_model",
			"rotation":[
				-0.70710688829422,
				0,
				0,
				0.7071066498756409
			]
		},
		{
			"mesh":1,
			"name":"Circle",
			"scale":[
				1.121547818183899,
				1.121547818183899,
				1.121547818183899
			],
			"translation":[
				0,
				-0.8875846862792969,
				0
			]
		}
	],
	"materials":[
		{
			"doubleSided":true,
			"name":"initialShadingGroup",
			"normalTexture":{
				"index":0
			},
			"pbrMetallicRoughness":{
				"baseColorTexture":{
					"index":1
				},
				"metallicRoughnessTexture":{
					"index":2
				},
				"roughnessFactor":0
			}
		},
		{
			"doubleSided":true,
			"emissiveFactor":[
				1,
				0.8567714691162109,
				0.007386011071503162
			],
			"extensions":{
				"KHR_materials_emissive_strength":{
					"emissiveStrength":2.6999998092651367
				}
			},
			"name":"Material.002",
			"pbrMetallicRoughness":{
				"baseColorFactor":[
					0,
					0,
					0,
					1
				]
			}
		}
	],
	"meshes":[
		{
			"name":"defaultMaterial",
			"primitives":[
				{
					"attributes":{
						"POSITION":0,
						"NORMAL":1,
						"TEXCOORD_0":2
					},
					"indices":3,
					"material":0
				}
			]
		},
		{
			"name":"Circle",
			"primitives":[
				{
					"attributes":{
						"POSITION":4,
						"NORMAL":5,
						"TEXCOORD_0":6
					},
					"indices":7,
					"material":1
				}
			]
		}
	],
	"textures":[
		{
			"sampler":0,
			"source":0
		},
		{
			"sampler":0,
			"source":1
		},
		{
			"sampler":0,
			"source":2
		}
	],
	"images":[
		{
			"mimeType":"image/png",
			"name":"Image_2",
			"uri":"Image_2.png"
		},
		{
			"mimeType":"image/jpeg",
			"name":"Image_0",
			"uri":"Image_0.jpg"
		},
		{
			"mimeType":"image/png",
			"name":"Image_1",
			"uri":"Image_1.png"
		}
	],
	"accessors":[
		{
			"bufferView":0,
			"componentType":5126,
			"count":6473,
			"max":[
				0.982466995716095,
				1,
				0.982466995716095
			],
			"min":[
				-0.982466995716095,
				-1,
				-0.982466995716095
			],
			"type":"VEC3"
		},
		{
			"bufferView":1,
			"componentType":5126,
			"count":6473,
			"type":"VEC3"
		},
		{
			"bufferView":2,
			"componentType":5126,
			"count":6473,
			"type":"VEC2"
		},
		{
			"bufferView":3,
			"componentType":5123,
			"count":37440,
			"type":"SCALAR"
		},
		{
			"bufferView":4,
			"componentType":5126,
			"count":160,
			"max":[
				0.9770536422729492,
				0.1142476350069046,
				0.9770536422729492
			],
			"min":[
				-0.9770536422729492,
				0,
				-0.9770536422729492
			],
			"type":"VEC3"
		},
		{
			"bufferView":5,
			"componentType":5126,
			"count":160,
			"type":"VEC3"
		},
		{
			"bufferView":6,
			"componentType":5126,
			"count":160,
			"type":"VEC2"
		},
		{
			"bufferView":7,
			"componentType":5123,
			"count":960,
			"type":"SCALAR"
		}
	],
	"bufferViews":[
		{
			"buffer":0,
			"byteLength":77676,
			"byteOffset":0,
			"target":34962
		},
		{
			"buffer":0,
			"byteLength":77676,
			"byteOffset":77676,
			"target":34962
		},
		{
			"buffer":0,
			"byteLength":51784,
			"byteOffset":155352,
			"target":34962
		},
		{
			"buffer":0,
			"byteLength":74880,
			"byteOffset":207136,
			"target":34963
		},
		{
			"buffer":0,
			"byteLength":1920,
			"byteOffset":282016,
			"target":34962
		},
		{
			"buffer":0,
			"byteLength":1920,
			"byteOffset":283936,
			"target":34962
		},
		{
			"buffer":0,
			"byteLength":1280,
			"byteOffset":285856,
			"target":34962
		},
		{
			"buffer":0,
			"byteLength":1920,
			"byteOffset":287136,
			"target":34963
		}
	],
	"samplers":[
		{
			"magFilter":9729,
			"minFilter":9987
		}
	],
	"buffers":[
		{
			"byteLength":289056,
			"uri":"marbel.bin"
		}
	]
}
