{
	"asset":{
		"generator":"Khronos glTF Blender I/O v4.0.43",
		"version":"2.0"
	},
	"extensionsUsed":[
		"KHR_materials_emissive_strength"
	],
	"scene":0,
	"scenes":[
		{
			"name":"Scene",
			"nodes":[
				0,
				1,
				2,
				3,
				4,
				5,
				6,
				7,
				8
			]
		}
	],
	"nodes":[
		{
			"mesh":0,
			"name":"Cylinder.001",
			"scale":[
				1.7000000476837158,
				0.02500000037252903,
				1.7000000476837158
			]
		},
		{
			"mesh":1,
			"name":"Ring Light",
			"scale":[
				1.7000000476837158,
				0.012341000139713287,
				1.7000000476837158
			],
			"translation":[
				0,
				0.03734102100133896,
				0
			]
		},
		{
			"mesh":0,
			"name":"Cylinder.002",
			"scale":[
				1.7005000114440918,
				0.02500000037252903,
				1.7005000114440918
			],
			"translation":[
				0,
				0.07468197494745255,
				0
			]
		},
		{
			"mesh":2,
			"name":"Cylinder.004",
			"scale":[
				1.2999999523162842,
				0.10000000149011612,
				1.2999999523162842
			],
			"translation":[
				0,
				0.19968196749687195,
				0
			]
		},
		{
			"mesh":3,
			"name":"Ring Light.001",
			"rotation":[
				0.7071068286895752,
				0,
				0,
				0.7071068286895752
			],
			"scale":[
				1.2999999523162842,
				0.02234099991619587,
				1.2999999523162842
			],
			"translation":[
				0,
				1.103614091873169,
				-0.5752279162406921
			]
		},
		{
			"mesh":4,
			"name":"Ring Light.002",
			"rotation":[
				0.7071068286895752,
				0,
				0,
				0.7071068286895752
			],
			"scale":[
				1.1247308254241943,
				0.019328931346535683,
				1.1247308254241943
			],
			"translation":[
				0,
				1.103614091873169,
				-0.7708911895751953
			]
		},
		{
			"mesh":5,
			"name":"Ring Light.003",
			"rotation":[
				0.7071068286895752,
				0,
				0,
				0.7071068286895752
			],
			"scale":[
				0.9699417352676392,
				0.01666882075369358,
				0.9699417352676392
			],
			"translation":[
				0,
				1.103614091873169,
				-0.9814404845237732
			]
		},
		{
			"mesh":6,
			"name":"Cube",
			"scale":[
				3.8676416873931885,
				3.8676416873931885,
				3.8676416873931885
			],
			"translation":[
				0,
				3.8083741664886475,
				0.8684208393096924
			]
		},
		{
			"name":"Empty",
			"translation":[
				0,
				0.9444342851638794,
				0
			]
		}
	],
	"materials":[
		{
			"doubleSided":true,
			"name":"Bottom Ring",
			"pbrMetallicRoughness":{
				"baseColorFactor":[
					0.07036013901233673,
					0.0030352578032761812,
					0.04091520234942436,
					1
				],
				"metallicFactor":0.3302752375602722,
				"roughnessFactor":0.6467889547348022
			}
		},
		{
			"doubleSided":true,
			"emissiveFactor":[
				1,
				0.016737804789624826,
				0.81625343311185
			],
			"extensions":{
				"KHR_materials_emissive_strength":{
					"emissiveStrength":7.6881882439753895
				}
			},
			"name":"Bottom Light",
			"pbrMetallicRoughness":{
				"baseColorFactor":[
					0.07036013901233673,
					0.0030352578032761812,
					0.04091520234942436,
					1
				],
				"metallicFactor":0,
				"roughnessFactor":0.5
			}
		},
		{
			"doubleSided":true,
			"emissiveFactor":[
				1,
				0,
				0.08274802164148101
			],
			"extensions":{
				"KHR_materials_emissive_strength":{
					"emissiveStrength":7.866983160800601
				}
			},
			"name":"Bottom Light_02",
			"pbrMetallicRoughness":{
				"baseColorFactor":[
					0.2874408960342407,
					0.040915172547101974,
					0.24228115379810333,
					1
				],
				"metallicFactor":0,
				"roughnessFactor":0.5
			}
		},
		{
			"doubleSided":true,
			"name":"Box",
			"pbrMetallicRoughness":{
				"baseColorFactor":[
					0.018281947821378708,
					0.0010129570728167892,
					0.008159494027495384,
					1
				],
				"metallicFactor":0,
				"roughnessFactor":0.5
			}
		}
	],
	"meshes":[
		{
			"name":"Cylinder.003",
			"primitives":[
				{
					"attributes":{
						"POSITION":0,
						"NORMAL":1,
						"TEXCOORD_0":2
					},
					"indices":3,
					"material":0
				}
			]
		},
		{
			"name":"Cylinder.004",
			"primitives":[
				{
					"attributes":{
						"POSITION":4,
						"NORMAL":5,
						"TEXCOORD_0":6
					},
					"indices":3,
					"material":1
				}
			]
		},
		{
			"name":"Cylinder.001",
			"primitives":[
				{
					"attributes":{
						"POSITION":7,
						"NORMAL":8,
						"TEXCOORD_0":9
					},
					"indices":10,
					"material":0
				}
			]
		},
		{
			"name":"Cylinder.002",
			"primitives":[
				{
					"attributes":{
						"POSITION":11,
						"NORMAL":12,
						"TEXCOORD_0":13
					},
					"indices":14,
					"material":2
				}
			]
		},
		{
			"name":"Cylinder.005",
			"primitives":[
				{
					"attributes":{
						"POSITION":15,
						"NORMAL":16,
						"TEXCOORD_0":17
					},
					"indices":14,
					"material":2
				}
			]
		},
		{
			"name":"Cylinder.006",
			"primitives":[
				{
					"attributes":{
						"POSITION":18,
						"NORMAL":19,
						"TEXCOORD_0":20
					},
					"indices":14,
					"material":2
				}
			]
		},
		{
			"name":"Cube.001",
			"primitives":[
				{
					"attributes":{
						"POSITION":21,
						"NORMAL":22,
						"TEXCOORD_0":23
					},
					"indices":24,
					"material":3
				}
			]
		}
	],
	"accessors":[
		{
			"bufferView":0,
			"componentType":5126,
			"count":300,
			"max":[
				0.9980267286300659,
				1,
				1
			],
			"min":[
				-0.9980267286300659,
				-1,
				-1
			],
			"type":"VEC3"
		},
		{
			"bufferView":1,
			"componentType":5126,
			"count":300,
			"type":"VEC3"
		},
		{
			"bufferView":2,
			"componentType":5126,
			"count":300,
			"type":"VEC2"
		},
		{
			"bufferView":3,
			"componentType":5123,
			"count":588,
			"type":"SCALAR"
		},
		{
			"bufferView":4,
			"componentType":5126,
			"count":300,
			"max":[
				0.9980267286300659,
				1,
				1
			],
			"min":[
				-0.9980267286300659,
				-1,
				-1
			],
			"type":"VEC3"
		},
		{
			"bufferView":5,
			"componentType":5126,
			"count":300,
			"type":"VEC3"
		},
		{
			"bufferView":6,
			"componentType":5126,
			"count":300,
			"type":"VEC2"
		},
		{
			"bufferView":7,
			"componentType":5126,
			"count":800,
			"max":[
				0.9980267286300659,
				1.1761562824249268,
				1
			],
			"min":[
				-0.9980267286300659,
				-1,
				-1
			],
			"type":"VEC3"
		},
		{
			"bufferView":8,
			"componentType":5126,
			"count":800,
			"type":"VEC3"
		},
		{
			"bufferView":9,
			"componentType":5126,
			"count":800,
			"type":"VEC2"
		},
		{
			"bufferView":10,
			"componentType":5123,
			"count":1788,
			"type":"SCALAR"
		},
		{
			"bufferView":11,
			"componentType":5126,
			"count":604,
			"max":[
				0.9980267286300659,
				1,
				1
			],
			"min":[
				-0.9980267286300659,
				-1,
				-1
			],
			"type":"VEC3"
		},
		{
			"bufferView":12,
			"componentType":5126,
			"count":604,
			"type":"VEC3"
		},
		{
			"bufferView":13,
			"componentType":5126,
			"count":604,
			"type":"VEC2"
		},
		{
			"bufferView":14,
			"componentType":5123,
			"count":1200,
			"type":"SCALAR"
		},
		{
			"bufferView":15,
			"componentType":5126,
			"count":604,
			"max":[
				0.9980267286300659,
				1,
				1
			],
			"min":[
				-0.9980267286300659,
				-1,
				-1
			],
			"type":"VEC3"
		},
		{
			"bufferView":16,
			"componentType":5126,
			"count":604,
			"type":"VEC3"
		},
		{
			"bufferView":17,
			"componentType":5126,
			"count":604,
			"type":"VEC2"
		},
		{
			"bufferView":18,
			"componentType":5126,
			"count":604,
			"max":[
				0.9980267286300659,
				1,
				1
			],
			"min":[
				-0.9980267286300659,
				-1,
				-1
			],
			"type":"VEC3"
		},
		{
			"bufferView":19,
			"componentType":5126,
			"count":604,
			"type":"VEC3"
		},
		{
			"bufferView":20,
			"componentType":5126,
			"count":604,
			"type":"VEC2"
		},
		{
			"bufferView":21,
			"componentType":5126,
			"count":1427,
			"max":[
				1,
				1,
				1.5160062313079834
			],
			"min":[
				-1,
				-1,
				-1
			],
			"type":"VEC3"
		},
		{
			"bufferView":22,
			"componentType":5126,
			"count":1427,
			"type":"VEC3"
		},
		{
			"bufferView":23,
			"componentType":5126,
			"count":1427,
			"type":"VEC2"
		},
		{
			"bufferView":24,
			"componentType":5123,
			"count":7434,
			"type":"SCALAR"
		}
	],
	"bufferViews":[
		{
			"buffer":0,
			"byteLength":3600,
			"byteOffset":0,
			"target":34962
		},
		{
			"buffer":0,
			"byteLength":3600,
			"byteOffset":3600,
			"target":34962
		},
		{
			"buffer":0,
			"byteLength":2400,
			"byteOffset":7200,
			"target":34962
		},
		{
			"buffer":0,
			"byteLength":1176,
			"byteOffset":9600,
			"target":34963
		},
		{
			"buffer":0,
			"byteLength":3600,
			"byteOffset":10776,
			"target":34962
		},
		{
			"buffer":0,
			"byteLength":3600,
			"byteOffset":14376,
			"target":34962
		},
		{
			"buffer":0,
			"byteLength":2400,
			"byteOffset":17976,
			"target":34962
		},
		{
			"buffer":0,
			"byteLength":9600,
			"byteOffset":20376,
			"target":34962
		},
		{
			"buffer":0,
			"byteLength":9600,
			"byteOffset":29976,
			"target":34962
		},
		{
			"buffer":0,
			"byteLength":6400,
			"byteOffset":39576,
			"target":34962
		},
		{
			"buffer":0,
			"byteLength":3576,
			"byteOffset":45976,
			"target":34963
		},
		{
			"buffer":0,
			"byteLength":7248,
			"byteOffset":49552,
			"target":34962
		},
		{
			"buffer":0,
			"byteLength":7248,
			"byteOffset":56800,
			"target":34962
		},
		{
			"buffer":0,
			"byteLength":4832,
			"byteOffset":64048,
			"target":34962
		},
		{
			"buffer":0,
			"byteLength":2400,
			"byteOffset":68880,
			"target":34963
		},
		{
			"buffer":0,
			"byteLength":7248,
			"byteOffset":71280,
			"target":34962
		},
		{
			"buffer":0,
			"byteLength":7248,
			"byteOffset":78528,
			"target":34962
		},
		{
			"buffer":0,
			"byteLength":4832,
			"byteOffset":85776,
			"target":34962
		},
		{
			"buffer":0,
			"byteLength":7248,
			"byteOffset":90608,
			"target":34962
		},
		{
			"buffer":0,
			"byteLength":7248,
			"byteOffset":97856,
			"target":34962
		},
		{
			"buffer":0,
			"byteLength":4832,
			"byteOffset":105104,
			"target":34962
		},
		{
			"buffer":0,
			"byteLength":17124,
			"byteOffset":109936,
			"target":34962
		},
		{
			"buffer":0,
			"byteLength":17124,
			"byteOffset":127060,
			"target":34962
		},
		{
			"buffer":0,
			"byteLength":11416,
			"byteOffset":144184,
			"target":34962
		},
		{
			"buffer":0,
			"byteLength":14868,
			"byteOffset":155600,
			"target":34963
		}
	],
	"buffers":[
		{
			"byteLength":170468,
			"uri":"stage_alone%5B1%5D.bin"
		}
	]
}
